<?xml version="1.0" encoding="UTF-8"?>
<!-- Lucide "badge-indian-rupee" — ISC License: https://lucide.dev/license -->
<svg xmlns="http://www.w3.org/2000/svg" width="512" height="512" viewBox="0 0 24 24" fill="none">
  <g stroke="currentColor" stroke-width="2.2" stroke-linecap="round" stroke-linejoin="round">
    <path d="M3.85 8.62a4 4 0 0 1 4.78-4.77 4 4 0 0 1 6.74 0 4 4 0 0 1 4.78 4.78 4 4 0 0 1 0 6.74 4 4 0 0 1-4.77 4.78 4 4 0 0 1-6.75 0 4 4 0 0 1-4.78-4.77 4 4 0 0 1 0-6.76Z"/>
    <path d="M8 8h8"/>
    <path d="M8 12h8"/>
    <path d="m13 17-5-1h1a4 4 0 0 0 0-8"/>
  </g>
</svg>
